<?xml version="1.0" encoding="UTF-8"?>
<svg id="Layer_2" data-name="Layer 2" xmlns="http://www.w3.org/2000/svg" viewBox="0 0 653.34 505.16">
  <defs>
    <style>
      .cls-1, .cls-2 {
        fill: #fff;
      }

      .cls-3 {
        fill: #f3dc0a;
      }

      .cls-4 {
        fill: #231f20;
      }

      .cls-4, .cls-2, .cls-5 {
        stroke: #fff;
        stroke-miterlimit: 10;
      }

      .cls-4, .cls-5 {
        stroke-width: 6px;
      }

      .cls-5 {
        fill: #ee1e57;
      }
    </style>
  </defs>
  <g id="Layer_1-2" data-name="Layer 1">
    <g>
      <g>
        <g>
          <path class="cls-4" d="M599.03,458.45L31.62,408.19c-15.92-1.41-28.62-19.74-28.62-40.97v-239.22c0-21.23,12.7-39.57,28.62-40.99l567.41-50.64c28.06-2.5,51.3,18.89,51.3,47.85v326.34c0,28.96-23.24,50.37-51.3,47.88Z"/>
          <path class="cls-2" d="M599.03,459.12L31.62,408.7c-16.1-1.43-28.98-20.04-28.98-41.5v-239.17c0-21.46,12.89-40.08,28.98-41.52l567.41-50.8c28.39-2.54,51.99,19.18,51.99,48.47v326.43c0,29.29-23.6,51.03-51.99,48.51ZM31.62,87.53c-15.69,1.4-28.25,19.53-28.25,40.45v239.27c0,20.92,12.56,39.05,28.25,40.43l567.41,50.1c27.65,2.44,50.62-18.74,50.62-47.26V84.28c0-28.52-22.97-49.69-50.62-47.23L31.62,87.53Z"/>
        </g>
        <g>
          <path class="cls-1" d="M60.84,125.07c4.66-.31,9.35-.61,14.06-.95,3.31-.24,6.33.85,9.04,3.12,1.06.89,1.91,2.16,2.63,3.59.88,1.77,1.16,3.87,1.96,5.68.41.91-.15,2.24.54,3.1.14,2.2.33,4.4.38,6.61.03,1.22-.48,2.61-.21,3.66.32,1.22.14,2.38.21,3.55.08,1.3-.03,2.64.03,3.95.14,3.14-.75,3.68-2.79,3.82-6.51.43-12.97.66-19.39.95-1.49.07-2.21-.9-2.23-2.91-.02-1.39.01-2.77,0-4.16-.02-1.29-.69-2.12-1.68-2.09-1.51.05-3.02.13-4.52.23-.98.07-1.64.98-1.65,2.27-.02,2.42-.02,4.83,0,7.25.02,2.02.53,2.8,2.06,3.43,2.47,1.01,5.03,1.67,7.5,2.76,2.35,1.04,4.79,1.85,7.2,2.65,2.27.75,4.47,1.71,6.71,2.6,1.16.46,2.29,1.33,3.22,2.35,1.13,1.24,2.3,2.48,3.04,4.26.75,1.78,1.33,3.62,1.76,5.58.31,1.4.21,2.88.45,4.24.67,3.77.25,7.59.33,11.38.09,3.86.02,7.73.02,11.59s.26,7.76-.07,11.59c-.35,4.14-.66,8.36-2.32,12.18-1.23,2.82-2.79,5.06-4.95,6.53-1.09.74-2.33,1.09-3.5,1.62-.99.44-2.08.26-3.02.61-2.08.76-4.16.39-6.22.42-6.46.08-12.87-.05-19.23.1-2.04.05-4.06-.29-6.02-.67-2.48-.48-4.96-1.51-6.73-4.26-.61-.95-1.29-1.83-1.88-2.79-1.13-1.84-1.31-4.21-1.88-6.35-.19-.72-.58-1.43-.42-2.33.13-.75-.11-1.42-.35-2.09-.08-.22.08-.61.14-.92.07-.39.3-.91.19-1.14-.62-1.24-.32-2.6-.34-3.9-.04-3.92-.02-7.83-.01-11.75,0-1.89.53-2.6,1.99-2.72.19-.02.38-.01.57-.01,6.07-.14,12.18-.27,18.34-.41.39,0,.79-.08,1.17-.01.7.13,1.1.82,1.1,1.81,0,1.98.03,3.97-.01,5.95-.02.78.15,1.44.4,2.11.25.66.59.98,1.19.95,1.57-.08,3.14-.14,4.71-.07.83.04,1.08-.83,1.56-1.36.53-.58.56-1.2.14-1.98-.19-.35-.12-.98-.12-1.48,0-2.51-.02-5.02,0-7.54,0-.96-.35-1.29-.96-1.81-1.28-1.1-2.79-1.08-4.13-1.82-1.6-.87-3.36-1.18-5.02-1.95-1.63-.75-3.33-1.38-5-1.87-1.53-.45-3-1.15-4.51-1.63-1.47-.47-2.87-1.45-4.21-2.4-2.28-1.6-4.34-3.56-5.42-6.88-.71-2.19-1.13-4.46-1.44-6.83-.63-4.76-.25-9.57-.33-14.35-.08-4.76-.02-9.54-.02-14.31,0-1.45-.02-2.9,0-4.34.02-1.06-.03-2.07.32-3.16.3-.92-.13-2.13.44-3.11-.11-2.11.73-3.87,1.33-5.74.45-1.42,1.15-2.54,1.9-3.68,1.8-2.75,4.16-3.99,6.64-5.08,1.36-.6,2.72-.66,4.1-.75,4.4-.3,8.82-.6,13.26-.89h0Z"/>
          <path class="cls-1" d="M105.25,246.56c-3.65-.36-7.57-1.08-11.19-.71-.28,0-.83-.36-1.11-.72-.56-1.08,0-3.25-.28-4.33-.28-2.16.56-4.33.28-6.13-.28-1.44.28-3.25-.28-5.05-.28-1.08.56-2.53.28-3.97-.28-2.16-.28-3.6-.28-5.77v-2.16c-.28-.72.28-1.81.28-2.89.28-3.25-.56-6.48-.56-10.09.28-1.09.83-2.18.56-3.26-.56-2.15-.28-4.32,0-6.49-.28-1.8-.28-3.96-.28-6.12,0-.72.28-1.45.28-2.53,0-1.44,0-2.53-.28-3.96v-1.44c.56-1.1,0-2.89,0-3.97.28-1.45-.28-3.24.28-4.7.28-1.82-.28-3.96-.28-5.4,0-1.08.56-2.91.56-3.99-.83-3.57-.28-6.84-.56-10.43,0-1.44.28-2.54,0-3.97-.28-1.43.28-2.18.28-3.62s-.28-2.51-.28-3.59c0-1.44-.28-2.51,0-3.61.28-1.46.56-2.56.28-4.35,0-1.44-.28-2.51-.28-3.95.28-1.82-.56-2.85,0-4.33.28-1.1.28-1.82,1.11-2.24l1.95-.13c1.39-.09,2.51-.89,3.63-.24,1.96.23,3.92-1.35,5.89-.76,2.82.54,4.8.04,7.63-.51,1.7-.48,3.13-.58,4.55-.31.28-.02.57.33.57.33,1.14,2.12.57,5.08.86,7.62v8.05c0,3.29-.29,6.6,0,9.88,0,1.1-.29,2.21-.29,3.31.57,3.63,0,7.68.29,11.32-.29,4.04,1.14,5.07,4.29,4.57,1.15-.05,2.58-.11,3.74-.9,1.15-1.15,1.15-3.73,1.15-5.2v-4.04c-.29-2.19-.29-4.4,0-6.62.58-2.24-.29-3.66-.29-5.5,0-1.47.58-2.97.29-4.43l-.29-.72c-.58-2.17.58-4.08.29-6.26-.29-.72,0-1.84,0-2.94,0-.73-.29-1.45-.29-1.82,0-1.1.29-2.22.29-3.33-.29-1.08-.29-2.55.29-3.33.29-.39.86-.43,1.44-.46,2.6-.17,5.79-.02,8.12-.55,1.75-.49,3.5-.98,5.26-.72,2.35.21,4.99.04,7.35-.12,1.18.29,2.96-.57,4.14.09v1.86c.3,6.32.3,12.28,0,18.63.3,9.67,0,19.75,0,29.44,0,1.49.59,2.58,0,3.73,0,1.12.3,2.22,0,3.35,0,.75-.3,1.13,0,1.86.3,3.72-.3,7.84.3,11.54,0,1.12-.3,2.62-.3,4.11.3.74.3,1.86,0,2.98,0,.75.3,1.48.3,2.6,0,.75-.3,1.5-.3,2.62,0,2.24.3,4.47.3,7.07-.59,2.99,0,5.59-.3,8.58,0,2.61.3,4.84,0,7.08v18.63c0,1.12,0,2.61-1.18,2.98-2.66.37-5.02,0-7.67.38-.88-.37-1.47-.74-2.35-.74-4.68,1.48-9.91.01-14.54.02-1.15,0-1.15-1.84-1.15-2.94.58-1.47.29-3.68.29-5.15,0-3.67,0-7.72-.29-11.39.29-2.94.58-5.89,0-8.45-.29-1.83.29-3.68,0-5.51,0-2.57.29-4.78,0-8.08.29-.74,0-1.47-.58-2.19-1.15-1.81-3.16-1.39-4.88-1.35-2,.05-3.72,1.92-3.43,4.47v35.48c0,.73,0,2.56-.29,3.66,0,.73,0,1.83-.86,1.83-.85.37-1.99,0-3.13.37-1.7,0-3.12-1.09-4.82-1.09-1.41,0-2.82,1.09-4.23,1.1h-.28Z"/>
          <path class="cls-1" d="M221.96,245.68c-4.12,0-8.53.39-12.62-.37-.63,0-1.57,1.15-2.19,1.15-.31-.38-.94-.38-1.25-.76-4.05-.76-3.12-7.64-4.05-11.07,0-1.53.31-3.06,0-4.58-.62-1.52-1.86-3.03-3.11-3.4-1.86-.74-3.41.04-5.26.44-1.23.01-3.08.03-4,1.18-.92.77-.92,2.28-.92,3.42,0,2.28-.61,4.17-.92,6.07-.31,1.14,0,2.65-.31,4.17,0,.76-.31,1.52-.61,2.28-.31.38-.61.76-.92.76-6.41,1.14-12.47,1.15-18.79.78-2.4,0-4.79-.74-7.18-.74-.6,0-1.19,0-1.49-.74-.59-1.87-.3-3.73.3-5.6,0-3.36.89-6.36,1.79-9.35.3-3.37,0-6.73.9-10.11.6-1.51,1.19-3.39,1.49-4.89.3-1.5-.3-2.99,0-4.49.6-3.38,1.2-6.76,1.79-10.15.3-1.13-.3-2.24-.3-3.36.6-1.51.6-3.39.9-4.9.3-2.26.9-4.52,1.2-6.78.3-3.76.6-7.52,1.5-11.31,0-1.88.3-3.76.6-5.65-.3-1.86.3-3.77.6-5.28.6-1.9.3-3.77.9-5.67.3-1.52.6-3.03.6-4.16,0-3.76,1.21-7.2,1.51-10.98,0-4.51,1.21-9.47,1.51-14.01,0-1.88,1.21-3.46.91-5.7,0-1.51.91-3.45,2.12-4.66.61-.42,1.21-.46,1.82-.88,3.04-.21,6.09-.79,9.16-1,2.15.23,4.3.47,6.46.7,1.24-.08,2.16-1.29,3.4-1.37,2.48-.17,4.97-1.1,7.15-.48.62.34,1.56.66,2.19.23,1.25-.47,2.19-.91,3.45-.23,1.26.3,2.51.21,4.09.11,3.16-.98,2.84,5.97,3.47,9,.32,1.52.32,2.67.95,4.18.63,3.04.63,6.12.95,9.19,0,6.16,3.17,11.78,2.54,17.99,0,1.16,0,2.31.32,3.46.95,2.27,1.59,4.56,1.27,7.28,0,5.4.95,10.77,1.91,15.76.64,2.3.64,4.23.96,6.54.32,1.15.32,2.31.32,3.08.64,3.85,1.6,7.31,1.92,11.17,0,.77,0,1.93.64,2.69q0,.39.32.77l.32.38c0,.39-.64,1.56-.32,2.33v2.32c.96,2.69.64,5.8,1.6,8.5.96,1.92,0,4.26.64,6.58.32.38.32.77.32,1.16.32,1.55.64,3.1.96,4.26,0,.78-.32,1.55-.32,2.33.32.77.64,1.16.64,1.93.32,1.94.64,4.26.96,6.2.32.78.32,1.55,0,2.33-.32,1.16-1.61,1.94-2.57,1.94-3.2,0-6.71,0-9.89.01h-.32ZM199.06,193.48c.31-.77-.31-1.52-.62-2.65,0-3.05-.31-6.09-.62-9.13-.31-2.27-.62-5.31-2.48-5.62-1.85.07-2.47,2.75-2.78,4.66-.62,2.68-.62,5.72-.62,8.76-.31,1.53-.62,3.06-.31,4.57.62,4.92,7.11,4.76,7.42-.2v-.38Z"/>
          <path class="cls-1" d="M266.71,111.3c8.54-.57,17.16-1.06,25.85-1.78,2.86-.24,5.51.53,8.06,1.5,2.34.9,4.29,2.82,5.68,5.24,1.89,3.26,2.7,6.95,3.17,10.97.53,4.54.27,9.07.37,13.61.11,4.71.02,9.43.02,14.15s.28,9.25-.08,13.85c-.35,4.5-1.37,8.93-4.03,12.6-.65.9-.73,2.65.02,3.36,2.08,1.99,2.13,5.25,3.56,7.62-.31,1.57.55,2.91.54,4.45-.03,15.82-.02,31.64,0,47.45,0,1.05-.14,1.39-1.17,1.59-.66.13-1.36.46-2.09.46-8.47.01-16.88.02-25.21.03-.16,0-.33,0-.49,0-1.85-.11-2.52-.91-2.52-3.1,0-9.97,0-19.93,0-29.9,0-3.58.01-7.16,0-10.74,0-1.88-.72-2.67-2.35-2.65-1.8.02-3.59.06-5.38.13-1.21.05-2.04,1.05-2.04,2.51-.02,5.01,0,10.01,0,15.02,0,8.47,0,16.95,0,25.42,0,2.52-.63,3.3-2.78,3.31-4.77.03-9.51.02-14.23.02-3.27,0-6.52,0-9.77,0-.4,0-.79.03-1.18,0-1.64-.15-2.27-.95-2.27-2.94,0-20.02,0-40.04,0-60.06,0-.71.06-1.38.29-2.13.33-1.07.33-2.5,0-3.54-.23-.73-.3-1.4-.3-2.11-.01-20.21,0-40.41,0-60.62,0-.19.02-.39,0-.57-.13-.95.1-1.3,1-1.35,4.5-.23,9.03-.57,13.58-.88l13.76-.92h0ZM278.4,156.27c0-3.09,0-6.17,0-9.26,0-1.71-.62-2.66-2-2.69-1.95-.03-3.91.06-5.85.3-1.35.17-1.93,1.2-1.93,2.93-.01,3.07,0,6.14,0,9.21,0,2.88-.01,5.76,0,8.64,0,1.16,1.24,2.88,2.13,2.87,1.86-.01,3.74-.03,5.6-.23,1.4-.15,2.04-1.16,2.05-2.81.01-2.99,0-5.98,0-8.96h0Z"/>
          <path class="cls-1" d="M323.18,246.37c-1.05-.4-2.1-.81-3.15-.81s-2.09-.4-3.14-.4-2.43.41-2.78-.8c-.87-1.61-.35-2.42-.35-4.44v-14.52c.35-8.48-.52-16.53.35-25.02-.35-3.62-.35-7.25-.35-10.88v-6.45c.35-.82.69-1.64.69-2.44-1.22-3.59-.69-7.24-.69-11.27v-60.91c.35-1.23,1.39-.9,2.78-.99,2.79-.19,7.34-.49,10.15-.68,5.64-.79,12.02-.4,17.73-2.01,2.51.24,5.02.48,7.18.34s3.97-1.09,6.14-1.24c3.26,1.02,6.54-.03,9.82.16,1.83-.12,5.13-1.17,5.5.87.37,2.46.37,4.54,0,6.64-.37.85-.37,1.27-.37,2.1.37,1.22,1.1,2.42.73,3.69-.37.85-.37,1.27-.37,2.1,0,1.24.37,2.05.37,3.3s-.37,2.1-.73,3.36c0,.83.37,2.05,0,2.9,0,.83.37,1.64.37,2.47v4.15c0,1.25-.37,2.51-.37,4.17q.37,2.06-1.47,2.56c-3.3.16-11.31.56-16.37.81l-3.96.2c-.72.04-2.51-.29-3.59.59-.72.85-1.07,2.1-1.43,2.94,0,.82.36,2.03.36,2.85.72,2.02-.36,4.93,1.43,6.49.36.8,1.44.76,2.15,1.14l7.57-.32,6.9-.3,3.28-.14c.73-.03,1.46-.06,1.83.34.37.81.73,1.63.37,2.47,0,.83-.37,1.67,0,2.9,0,1.24-.37,2.09-.37,3.74.37,1.64.73,3.7.37,5.37-.37.43-.37.84-.37.84,0,1.24.73,2.05.37,2.89.37,1.65.37,2.47-.37,3.74-.37,2.08,1.1,3.69.37,5.79-.73,2.09,1.47,6.17-1.46,6.67-1.46-.37-2.56-.76-4.02-.31-1.82.46-3.27-.32-5.09.14-2.54.89-5.06,1.37-7.59.61-3.59-1.95-5.75,3.43-5.39,7.11,0,.82.36,2.04.36,2.86s.36,1.63.36,2.45c1.08,4.08,2.87,2.81,6.11,2.34,2.53-.05,5.06.72,7.96.26,1.09-.02,2.18-.46,3.27-.89,2.55-.05,4.75.32,7.31.68.37,0,.73.4,1.1.81.37.41.73,1.65.73,2.89,0,.83-.37,1.25-.37,2.08-.37,1.67-.37,3.32.37,4.97,0,.83-.37,1.66-.37,2.49s.37,1.65,0,2.49c0,1.66.37,2.9.37,4.56-.37.83,0,2.07,0,2.9s-.37,1.66-.37,2.91c0,.83,0,1.66-.37,2.49,0,1.66,1.1,2.9.73,4.56-.37.42-.37.83-.37,1.25-.37,1.25,0,2.9-.73,4.15s-2.2.42-3.67.83c-.73,0-1.83,0-2.56-.41-1.82-.82-3.28-.41-5.1-.41-2.18-.41-3.63.42-5.79.83-3.25,0-7.56,0-11.14.01l-16.67.02c-1.41-.4-2.46,0-3.86.41h-.35Z"/>
          <path class="cls-1" d="M32.84,250.19c.75-.05,1.31-.12,1.87-.12,7.86,0,15.79.05,23.79-.02,1.45-.01,1.96.57,2.21,2.52,1.06,8.13,2.31,16.23,3.49,24.36.25,1.72.95,3.18,2.3,2.71.82-.29,1.81-1.69,1.99-2.81,1.32-8.23,2.42-16.53,3.69-24.79.11-.74.9-1.85,1.38-1.86,8.67-.1,17.42-.06,26.46-.05-1.6,6.19-3.18,12.15-4.69,18.14-1.88,7.48-3.64,15.01-5.56,22.44-2.37,9.2-4.87,18.31-7.28,27.43-1.32,4.99-2.59,10-3.83,15.01-.2.79-.14,1.72-.14,2.58,0,11,0,22,0,33,0,3.41-.43,3.97-2.94,3.8-6.56-.43-13.08-.87-19.55-1.32-2.35-.16-2.51-.44-2.55-3.56-.07-6.04-.25-12.09-.23-18.12.01-5.33.29-10.65.31-15.98,0-1.35-.52-2.75-.86-4.1-2.77-10.93-5.58-21.8-8.3-32.68-3.86-15.46-7.66-30.88-11.55-46.6h0Z"/>
          <path class="cls-1" d="M157.76,377.89c-4.15-.65-8.29-2.04-12.7-1.22-3.52.69-7.02-.1-10.51-.33-.87-.06-1.74-.85-2.9-.93-.87-.06-1.73-.12-2.89-.93-2.3-.52-1.73-.48-4.03-1-2.3-1.62-4.3-4.31-6.01-7.35-1.14-2.26-1.71-5.22-2.28-7.81-.29-.75-.29-1.11-.29-1.84.29-.71.57-1.43.57-2.16-.29-1.11-1.14-1.89-1.14-2.62v-17.16c0-1.46.28-3.27,0-4.75.28-2.18-.28-4.39.28-6.93v-2.56c-.28-4.39-.28-8.04-.28-12.42,0-.73.57-1.44.57-2.17-.57-1.48-.57-3.67-.57-5.13v-28.48c.28-2.19.57-4.38,1.14-6.2,0-1.83.57-2.92.85-4.38.29-1.46.86-2.92,2-3.64.86-.36,1.43-1.82,1.43-2.92.57-1.1,1.72-1.83,2.58-2.19,1.15-.36,2.01-1.46,3.16-1.83,4.62-1.1,8.97-.73,13.92-.72,2.05,0,4.1-.74,6.15-.74,2.94,0,5.9.75,9.16.75,7.15-.37,16.16.02,20.09,9.06,1.52,4.16,2.43,8.31,3.03,12.85-.3,1.88-.3,3.77-.3,5.66-.3,1.5,0,3.4,0,4.9,0,3.02-.3,6.03,0,9.06v1.89c.3,1.14.3,2.27.61,3.41,0,1.51-.3,2.63-.3,3.77s-.3,1.88-.3,2.63,0,1.51.3,2.27c.3,1.14-.3,2.25-.3,3.39,0,1.89.3,3.03,0,4.91,0,1.51.61,3.42,0,4.9v3.4c0,1.51,0,3.02.3,4.54.3,1.14-.3,2.25-.3,3.38,0,.38-.3,1.5-.3,2.25,0,1.13.61,1.54.3,2.65-.61,4.12.3,7.56,0,11.7,0,2.26.3,3.79,0,6.04,0,2.26,0,4.91-.61,7.13-.3,1.11-.3,2.62-.61,4.11,0,.75-.61,1.85-.61,2.98-.91,2.21-2.42,4.75-4.24,6.14-.3.36-.6,1.09-.91,1.45-.3.73-1.21.3-1.81,1.01-.6-.04-1.2,1.05-1.5,1.03-.9.31-1.8.26-2.7.57-2.69.19-5.68.74-7.76.6l-.3-.02ZM146.23,345.58c5.3,1.01,5.6-2.32,5.3-8.29-.29-.39-.29-1.13-.29-1.87.59-1.83,0-4.09.29-5.94v-2.6c0-.74.59-1.46.59-2.58s-.89-1.9-.59-3v-3.35c-.29-1.13.59-2.21.59-3.33-.3-.75-.59-1.14-.59-1.88v-8.19c0-2.23,0-4.46-.29-7.08.29-2.6.29-5.2,0-7.81.29-1.11.89-2.59.29-4.09-.29-1.12,0-1.86-.59-2.99s-2.06-1.15-3.24-1.17c-2.64-.79-5.87-.84-5.87,3.6.29,2.97.29,5.93.29,8.89,0,.74.59,2.24.29,2.97q0,.37-.29.73c-.29.73,0,1.85,0,2.59,0,2.22-.29,4.06-.29,5.54,0,.74.29,1.86.29,2.97,0,.74-.29,1.84,0,2.96,0,1.11.59,1.87.59,2.61.29,1.12-.59,2.2-.59,3.31v1.85c0,.37-.29,1.47,0,2.22.29.38.59.76.59,1.5.29.38,0,.74,0,1.11-.59,1.46-.88,3.3-.59,4.42.29.75.29,1.12,0,1.85-.29,1.1,0,2.59,0,3.33-.29,2.21-.29,4.8.29,6.68-.29,3.69.88,5.23,3.52,4.99h.29Z"/>
          <path class="cls-1" d="M250.29,248.96c4.25.39,8.69-.39,12.98.4,1.82.99,1.82,4.14,2.15,6.11-.66,5.32-.83,11.03-.17,16.55.17,2.56-.66,5.7-.66,8.46-.5,1.96.66,3.75.66,5.72,0,1.38-.5,2.75-.5,4.32.16,4.73.33,9.07,0,13.98.5,5.53-.5,11.41.66,16.96.33,3.56-1.16,6.46-.33,10.23.5,2.19,0,4.14-.17,6.1,0,3.35-.16,6.69-.16,10.04.33,3.76.66,7.72.83,11.47-.16.98.33,2.38.66,2.8,0,.39-.83.54-.99,1.32-.17,1.37-.5,3.12-.99,4.47-.83,1.53-1.16,3.08-1.49,4.83-.33,1.36-1.16,2.49-1.98,3.61-1.15,1.89-2.97,3.15-4.77,3.82-5.08,3.19-11.1,3.57-16.77,2.99-2.1-.14-4.19.5-6.12-.22-1.6-.69-3.2-.99-4.96-1.11-10.49-.7-26.63.32-29.89-15.52,0-2.86-1.24-5.41-1.7-7.91-.31-4.78,0-9.52,0-14.28-.15-3.43-.15-6.86,0-10.28.15-.75.93-1.1,1.08-1.29,0-.19-.77-.61-1.08-1.19,0-.19,0-.38-.15-.39-.15-.96.77-1.87.46-2.65-.62-.98-.46-2.68-.46-3.83v-69.29c0-2.09.31-4.38,1.7-5.52.62-.57,1.4-.76,2.17-.76,5.14.19,10.3,0,15.34,0,1.42.19,2.68-.77,3.79-.58,2.85.96,6.35.39,6.35,5.22.32,3.67-.16,6.95-.48,10.62.16,3.86,1.12,7.93,0,11.98-.48,2.7.96,5.42.48,8.12-.32,2.89-.48,4.63,0,7.34.48,2.33-.64,4.43-.64,6.75.32,3.1-.32,6.37.32,9.47.16,2.52-.64,5,.16,7.54.16.97.16,1.74,0,2.7-.32,3.27.48,6.78.32,10.25-.16,1.93-.16,3.66-.16,5.6.16,1.75-.96,3.44-.48,5.2.96,2.36,0,5.41,1.12,7.59,1.28,2.58,3.67,2.89,5.76,1.64,1.61-.89,2.73-2.39,2.73-4.52,0-2.52.32-5.03-.16-7.77-.48-1.96-.48-3.9,0-5.82,1.29-5.19-.48-10.88-.16-16.11,0-1.36.64-3.09.8-4.63-.97-5.46-1.13-10.71-.48-16.32.16-1.55-.64-2.92-.48-4.28.16-1.74,1.13-3.28.97-5.03-.97-5.64-1.29-11.27-.32-16.89,0-1.94-.48-4.66-.32-6.6.16-2.72.32-5.43.32-8.15s2.25-3.3,4.19-3.3c3.56,0,7.29,0,10.71,0h.33Z"/>
          <path class="cls-1" d="M314.42,250.33c8.95,0,17.98.11,27.08-.02,3-.04,5.77.92,8.45,2.1,2.45,1.08,4.49,3.19,5.96,5.76,1.98,3.47,2.83,7.31,3.32,11.46.56,4.69.28,9.31.39,13.96.12,4.83.03,9.66.03,14.49s.29,9.49-.08,14.17c-.37,4.58-1.44,9.05-4.22,12.61-.68.88-.76,2.66.03,3.45,2.18,2.18,2.23,5.52,3.73,8.06-.32,1.59.57,3.02.57,4.59-.03,16.19-.03,32.39,0,48.59,0,1.07-.15,1.41-1.22,1.54-.69.09-1.43.38-2.19.33-8.88-.59-17.69-1.19-26.42-1.77-.17-.01-.35-.02-.52-.04-1.94-.24-2.63-1.11-2.64-3.35,0-10.2,0-20.4,0-30.6,0-3.66.01-7.33,0-10.99,0-1.92-.76-2.78-2.47-2.87-1.88-.1-3.76-.2-5.64-.25-1.27-.03-2.13.93-2.14,2.42-.02,5.12,0,10.25,0,15.37,0,8.67,0,17.34,0,26.02,0,2.58-.66,3.33-2.91,3.19-4.99-.31-9.96-.66-14.9-.99-3.42-.23-6.83-.46-10.23-.69-.41-.03-.83-.02-1.24-.09-1.72-.27-2.37-1.13-2.37-3.16,0-20.48,0-40.96,0-61.44,0-.72.06-1.41.3-2.16.35-1.07.35-2.53,0-3.62-.24-.77-.31-1.45-.31-2.18-.01-20.67-.01-41.35-.01-62.02,0-.19.02-.39,0-.58-.14-.98.1-1.32,1.05-1.31,4.72.08,9.45.04,14.21.05,4.78,0,9.59,0,14.41.01h0ZM326.66,297.17c0-3.16,0-6.32,0-9.47,0-1.75-.65-2.77-2.1-2.89-2.04-.17-4.09-.22-6.12-.1-1.42.08-2.02,1.1-2.03,2.86,0,3.14,0,6.28,0,9.43,0,2.95-.01,5.89,0,8.84,0,1.18,1.3,3.03,2.23,3.09,1.95.12,3.92.23,5.87.16,1.47-.06,2.14-1.04,2.15-2.73.01-3.06,0-6.12,0-9.17h0Z"/>
        </g>
      </g>
      <g>
        <path class="cls-5" d="M595,460.67c-3.93-3.5-17.13-.38-20.45-2.8-3.32-2.43-2.89-6.37-2.89-12.87V52.2c0-14.38.42-51.89-24.9-49.04l-110.54,11.67c-.72.08-1.45.14-2.17.18-6.88.38-59.64,3.1-59.64,31.64,0,9.85.2,9.83,6.11,9.31,3.24-.29,7.15-.36,10.9.12,8.15,1.03,14.03,8.62,14.03,17.93,0,0-5.89,284.4,0,366.96,1.1,15.36,31.28,34.83,44.69,42.41,26.67,15.09,94.25,26.11,121.89,12.88,9.55-4.57,30.88-28.54,22.97-35.58Z"/>
        <g>
          <g>
            <path class="cls-3" d="M531.73,67.79c-.25,2.27-.43,4.37-.73,6.46-.34,2.38-.85,4.75-1.19,7.13-.9,6.33-1.77,12.66-2.62,18.99-.97,7.2-1.88,14.4-2.87,21.59-.8,5.78-1.71,11.55-2.5,17.32-1.01,7.36-1.94,14.71-2.92,22.06-.39,2.87-.83,5.73-1.25,8.6-.2,1.36-.99,2.02-2.27,2.06-8.14.27-16.23.55-24.26.8-1.35.04-2.17-.41-2.3-2.19-.43-6.28-1.03-12.53-1.59-18.79-.11-1.2-.1-2.47-.46-3.57-.23-.7-.97-1.47-1.63-1.64-.9-.23-2.12-.27-2.36,1.31-.28,1.9-.61,3.81-.77,5.72-.33,3.93-.56,7.87-.84,11.8-.13,1.79-.23,3.58-.43,5.36-.17,1.51-.83,2.42-2.45,2.46-7.81.21-15.58.48-23.28.76-1.68.06-2.39-.7-2.55-2.55-.28-3.29-.75-6.56-1.19-9.83-.75-5.58-1.52-11.14-2.31-16.7-.87-6.11-1.83-12.21-2.67-18.32-.72-5.21-1.32-10.45-2.02-15.66-.71-5.28-1.5-10.54-2.2-15.82-.85-6.32-1.65-12.65-2.45-18.97-.04-.32.04-.68.07-1.2,3.89-.3,7.72-.6,11.56-.9,4.39-.34,8.8-.65,13.23-1.06,1.32-.12,1.84.21,1.91,1.77.31,7.07.75,14.13,1.16,21.2.09,1.59.32,3.17.37,4.76.05,1.51.65,2.08,2.07,2.08,1.58,0,2.19-.88,2.33-2.35.18-1.92.3-3.85.41-5.77.16-2.86.24-5.72.42-8.58.26-4.14.52-8.29.95-12.43.05-.53,1.06-1.42,1.63-1.47,6.37-.6,12.78-1.04,19.22-1.59,1.31-.11,1.58.66,1.65,1.75.28,4.48.54,8.97.83,13.45.27,4.26.56,8.52.87,12.78.13,1.76.62,3.12,2.73,2.61,1.8-.44,1.79-1.72,1.83-3.32.11-3.81.43-7.64.78-11.46.31-3.43.86-6.85,1.13-10.28.11-1.41-.28-2.82-.34-4.25-.06-1.29.54-2.05,1.85-2.15,8.27-.63,16.6-1.29,25.45-1.98h0Z"/>
            <path class="cls-3" d="M474.54,247.52v47.31c0,.36,0,.72,0,1.08-.02,1.36-.56,1.97-1.84,2.06-.33.02-.67-.01-1-.02-6.91-.15-13.77-.31-20.6-.46-.33,0-.66.01-.98-.03-.89-.11-1.77-1-1.71-1.97.08-1.44-.4-2.92.33-4.32.22-.43.19-1.18,0-1.67-.65-1.78-.27-3.6-.35-5.39-.05-1.21.08-2.43-.04-3.63-.1-1.02.64-1.99.34-2.78-.35-.92-.26-1.76-.3-2.64-.05-.99-.06-2,0-2.99.06-1.09-.27-2.21.35-3.26.18-.3.17-.92,0-1.25-.61-1.2-.35-2.46-.36-3.69-.02-17.65-.02-35.31,0-52.96,0-.73-.3-1.54.36-2.2.13-.13.11-.63-.01-.81-.6-.83-.49-1.61-.06-2.49.16-.34.21-.88.07-1.22-.54-1.39-.56-2.74,0-4.15.09-.21-.03-.53-.1-.79-.29-1.11.09-1.8,1.04-1.83,5.44-.13,10.9-.25,16.39-.38,2.32-.05,4.65-.11,6.98-.16.93-.02,1.35.35,1.46,1.36.05.5,0,1.01,0,1.51v47.75h0Z"/>
            <path class="cls-3" d="M500.09,298.6c-1.4-.03-2.8-.66-4.19-.69-2.51-.05-5.01-.41-7.23-.16-2.49.84-4.98.19-7.46.13-.55.28-1.38.27-1.38-.62-.55-1.19-.55-1.49-.55-2.67-.27-.6,0-1.18.27-1.77-.27-1.78-.27-3.85,0-5.32.27-.59-.27-1.19-.27-1.48.27-.59,0-1.18,0-1.77,0-.3.27-.59.27-1.18-.27-.6-.27-1.48,0-2.37-.27-1.19-.27-2.07-.27-3.26,0-.89.55-2.06.27-3.25-.55-.89.27-1.77,0-2.96-.27-1.48-.55-3.26,0-4.73v-.89c-.27-.89-.55-1.48-.27-2.37,0-1.18.27-2.36.27-3.84,0-.89-.55-1.19-.55-1.78.27-.59.27-.89.27-1.18,0-.89-.27-1.77,0-2.66.27-.59.27-1.18.27-2.07-.27-.89,0-1.48-.27-2.66-.55-.89.27-2.07.27-2.96s-.27-1.77-.55-2.66c.27-.89.27-1.77.27-2.96-.27-.59.82-1.19.55-2.07.28-.59-.55-1.18-.55-1.77.27-.59.27-1.78.27-2.37-.27-1.18-.27-2.07-.27-3.25,0-.89.27-2.07,0-2.96,0-1.48.27-2.96.27-4.44.27-.59-.27-1.77-.27-2.36,0-1.18.27-2.37,0-3.55-.55-1.47.55-2.67.27-4.14-.27-1.18,0-2.07-.27-3.25v-2.66c-.27-.59,0-1.18,0-1.77s-.27-1.18-.27-1.47c.27-.6.27-2.37.27-3.26s.27-2.08,0-3.25c-.27-2.06,3.03-.96,4.13-1.28,5.53-.13,10.81-.25,16.11-.37,3.64.22,7.01-.16,10.68-.84,3.96.21,8.22.71,12.21.32.86-.02,1.43-.03,1.43,1.17s.29,1.8,0,3.32c0,1.21.29,2.11,0,3.32,0,.6.29,1.5.29,2.11s-.29,1.21-.29,1.81.29,1.5.29,1.8c0,1.51-.29,3.02-.29,4.83v4.52c-.29.91,0,2.11,0,3.32,0,2.41.29,3.62-2.57,3.64s-5.69.06-8.52-.52c-1.98-.28-4.24.34-6.49.66-1.69.61-1.12,2.7-1.41,4.2v2.39c-.28.6,0,1.5.28,2.39,0,1.49.56,2.69,2.25,2.68,2.54-.01,4.8-.02,7.35-.03,2.27.29,6.25-.93,6.54,2.38.29,1.5.29,3.31,0,5.12-.29.6,0,1.51,0,2.11v.9c-.29.9,0,2.11,0,3.01,0,.6-.29,1.2,0,2.11,0,.6.29,1.21.29,1.81,0,.9-.29,1.2-.57,2.11,0,.9.57,1.81.29,2.71.29,1.21-.29,2.71,0,3.92.86,3.02-1.99,2.09-3.7,2.38-1.42-.01-3.12-.62-4.82-.64-1.7-.31-3.67-.03-5.36-.04-1.13,0-1.97.58-2.53,1.18-.28.6,0,1.5,0,1.79,0,.9-.28,1.49,0,2.39.28.9.28,1.5,0,2.39.28.9.28,1.5,0,2.39,0,.3-.28.89-.28,1.19.84,3.6.28,7.78.28,11.67,0,2.69.56,5.39-.28,7.77,0,.6.56,1.51,0,2.09s-1.4.27-2.25.55l-1.96-.04h-.28Z"/>
            <path class="cls-3" d="M475.89,321.61c7.17.23,27.4.89,34.75,1.14.94.03,1.39.46,1.51,1.45.04.36,0,.73,0,1.1v23.05c0,.37.03.74,0,1.1-.1.91-1.02,1.78-1.91,1.81-.41.01-.83-.03-1.24-.05-5.15-.23-23.23-1.04-28.28-1.28-.62-.03-1.13.03-1.58.57-.29.35-.39.67-.39,1.12.02,1.88,0,3.75.01,5.62.01.94.73,1.7,1.62,1.77.84.07,1.63.19,2.47.48.73.26,1.68.45,2.49-.12.28-.19.77-.07,1.16-.06,1.01.04,2.03.05,3.04.16,2.04.21,17.14,1.11,19.21,1.39.18.02.34.31.51.48.49.53.41,1.18.41,1.81v20.39c0,.22.01.44,0,.66-.08,1.23-.91,2.03-2.1,2-.75-.02-1.51-.09-2.27-.13-3.9-.24-20.73-1.26-24.56-1.48-1.43-.08-1.97.49-1.98,2.06,0,2.02,0,4.04,0,6.06,0,1.38.55,2.06,1.81,2.26.4.06.81.06,1.21.08,5.25.34,23.56,1.53,28.92,1.88.79.05,1.33.53,1.45,1.35.06.43.01.88.01,1.32v23.05c0,.29.02.59,0,.88-.08,1.07-.95,1.9-1.98,1.89-.41,0-.83-.06-1.24-.09-13.48-1.05-39.56-3.1-52.58-4.05-2.18-.16-3.02-.62-3.04-3.56,0-.88-.27-1.84.37-2.59.1-.11.1-.5,0-.61-.43-.48-.38-1.02-.38-1.58,0-2-.16-4.02.06-5.98.13-1.13.65-2.13-.03-3.31-.09-.15.37-.56.34-.84-.1-.96.34-1.93-.27-2.89-.16-.25-.09-.68-.1-1.02-.01-.78-.06-1.58,0-2.35.11-1.22-.39-2.56.38-3.65-.28-1.15-.51-2.31-.39-3.48.07-.66-.24-1.41.35-1.98.13-.13.03-.68-.1-.98-.4-.96-.42-1.85.01-2.76.13-.27.15-.67.08-.99-.39-1.76-.31-1.74-.05-3.34.18-1.09.35-2.35.01-3.36-.31-.94-.27-1.78-.3-2.65-.05-1.43-.04-2.85,0-4.28.01-.6-.19-1.23.33-1.78.2-.22,0-.92-.08-1.4-.04-.26-.22-.5-.25-.75-.09-.68.85-1.16.13-2.08-.33-.42-.12-1.36-.13-2.06-.01-.78-.05-1.58,0-2.35.08-1.01-.33-2.12.37-3.02.06-.08.04-.29,0-.42-.83-2.87-.19-5.74-.39-8.61-.01-.21-.03-.44,0-.64.11-.58.36-1.15.36-1.73s-.34-1.18-.35-1.76c-.03-6.42-.03-12.83,0-19.25,0-.58.3-1.15.36-1.74.04-.44.13-.63.56-.59.46.04.92.04,1.38.05,6.72.22,13.47.44,20.27.66h0Z"/>
          </g>
          <path class="cls-3" d="M518.8,189.04l-66.74,1.72c-2.33.06-4.22-1.95-4.22-4.49h0c0-2.54,1.89-4.66,4.22-4.73l66.74-2c2.48-.07,4.5,2,4.5,4.62h0c0,2.63-2.02,4.81-4.5,4.87Z"/>
          <path class="cls-3" d="M519.57,315.61l-68.23-2c-1.93-.06-3.5-1.81-3.5-3.92v-1.57c0-2.11,1.57-3.77,3.5-3.73l68.23,1.72c2.06.05,3.73,1.86,3.73,4.04v1.63c0,2.18-1.67,3.89-3.73,3.83Z"/>
        </g>
      </g>
    </g>
  </g>
</svg>